# xmcd CD database file
# Copyright (C) 1993-1998 Ti Kan
#
# Track frame offsets:
#	200
#	11250
#	24632
#	39962
#	50650
#	60927
#	72105
#	82927
#	94472
#	102425
#	114857
#	125805
#	135620
#	147290
#	161822
#	174102
#	186027
#	202680
#
# Disc length: 2890 seconds
#
# Revision: 0
# Processed by: cddbd v1.4b41PL1 Copyright (c) Steve Scherf et al.
# Submitted via: CDmax 1.5.4
#
DISCID=e60b4812
DTITLE=Estes, "Sleepy" John - Brownsville blues
DYEAR=1900
DGENRE=
TTITLE0=38 Pistol
TTITLE1=The Girl I Love
TTITLE2=City Hall Blues
TTITLE3=Time Is Drawing Near
TTITLE4=God Can Use Me
TTITLE5=Government Money
TTITLE6=Working Man Blues
TTITLE7=Mailman Blues
TTITLE8=Mary Come On Home
TTITLE9=I'd Been Well Warned
TTITLE10=Pat Mann
TTITLE11=Drop Down Mamma
TTITLE12=Vassie Williams
TTITLE13=Young Lawyer
TTITLE14=Al Rawls
TTITLE15=Lawyer Clarck
TTITLE16=Martha Hardin
TTITLE17=Rats in My Kitchen
EXTD=
EXTT0=
EXTT1=
EXTT2=
EXTT3=
EXTT4=
EXTT5=
EXTT6=
EXTT7=
EXTT8=
EXTT9=
EXTT10=
EXTT11=
EXTT12=
EXTT13=
EXTT14=
EXTT15=
EXTT16=
EXTT17=
PLAYORDER=
